HIERARCHY
ROOT Hips
{
 OFFSET 0.000000 0.000000 0.000000
 CHANNELS 6 Xposition Yposition Zposition Yrotation Xrotation Zrotation
 JOINT Chest
 {
  OFFSET 0.000000 9.585900 0.002600
  CHANNELS 3 Yrotation Xrotation Zrotation
  JOINT Chest2
  {
   OFFSET 0.000000 9.601200 -0.005300
   CHANNELS 3 Yrotation Xrotation Zrotation
   JOINT Chest3
   {
    OFFSET 0.000000 9.561800 0.000000
    CHANNELS 3 Yrotation Xrotation Zrotation
    JOINT Chest4
    {
     OFFSET 0.000000 9.552100 0.000000
     CHANNELS 3 Yrotation Xrotation Zrotation
     JOINT Neck
     {
      OFFSET 0.000000 14.453000 0.000000
      CHANNELS 3 Yrotation Xrotation Zrotation
      JOINT Head
      {
       OFFSET 0.000000 8.936500 -0.011300
       CHANNELS 3 Yrotation Xrotation Zrotation
       End Site
       {
        OFFSET 0.000000 17.073600 -0.006000
       }
      }
     }
     JOINT RightCollar
     {
      OFFSET -2.921100 9.558500 0.000000
      CHANNELS 3 Yrotation Xrotation Zrotation
      JOINT RightShoulder
      {
       OFFSET -13.519700 0.000000 0.000000
       CHANNELS 3 Yrotation Xrotation Zrotation
       JOINT RightElbow
       {
        OFFSET 0.000000 -29.696600 0.000000
        CHANNELS 3 Yrotation Xrotation Zrotation
        JOINT RightWrist
        {
         OFFSET 0.000000 -24.004700 0.000000
         CHANNELS 3 Yrotation Xrotation Zrotation
         End Site
         {
          OFFSET 0.000000 -17.728500 0.000000
         }
        }
       }
      }
     }
     JOINT LeftCollar
     {
      OFFSET 2.921100 9.558500 0.000000
      CHANNELS 3 Yrotation Xrotation Zrotation
      JOINT LeftShoulder
      {
       OFFSET 13.519700 0.000000 0.000000
       CHANNELS 3 Yrotation Xrotation Zrotation
       JOINT LeftElbow
       {
        OFFSET 0.000000 -29.696600 0.000000
        CHANNELS 3 Yrotation Xrotation Zrotation
        JOINT LeftWrist
        {
         OFFSET 0.000000 -24.004700 0.000000
         CHANNELS 3 Yrotation Xrotation Zrotation
         End Site
         {
          OFFSET 0.000000 -17.728500 0.000000
         }
        }
       }
      }
     }
    }
   }
  }
 }
 JOINT RightHip
 {
  OFFSET -7.771700 -0.012900 -0.001300
  CHANNELS 3 Yrotation Xrotation Zrotation
  JOINT RightKnee
  {
   OFFSET 0.000000 -40.869800 0.001200
   CHANNELS 3 Yrotation Xrotation Zrotation
   JOINT RightAnkle
   {
    OFFSET 0.000000 -39.717900 0.002100
    CHANNELS 3 Yrotation Xrotation Zrotation
    JOINT RightToe
    {
     OFFSET 0.000000 -4.965400 11.033500
     CHANNELS 3 Yrotation Xrotation Zrotation
     End Site
     {
      OFFSET 0.000000 -1.423100 5.872300
     }
    }
   }
  }
 }
 JOINT LeftHip
 {
  OFFSET 7.771700 -0.012900 -0.001300
  CHANNELS 3 Yrotation Xrotation Zrotation
  JOINT LeftKnee
  {
   OFFSET 0.000000 -40.869800 0.001200
   CHANNELS 3 Yrotation Xrotation Zrotation
   JOINT LeftAnkle
   {
    OFFSET 0.000000 -39.717900 0.002100
    CHANNELS 3 Yrotation Xrotation Zrotation
    JOINT LeftToe
    {
     OFFSET 0.000000 -4.965400 11.033500
     CHANNELS 3 Yrotation Xrotation Zrotation
     End Site
     {
      OFFSET 0.000000 -1.423100 5.872300
     }
    }
   }
  }
 }
}
MOTION
Frames: 12
Frame Time: 0.008333
-63.455333 46.630057 1.219749 173.239065 -30.648704 -3.601016 0.337907 17.571395 2.624332 -0.050106 1.912968 0.297769 -0.096992 3.200566 0.487998 -0.185402 15.402215 2.358120 0.598447 17.471888 -0.924349 1.312771 -3.273242 -2.019738 0.271823 1.596708 -0.892587 4.022637 -7.419906 -17.224300 -49.174584 -68.430174 93.981060 1.186382 9.090462 -21.835120 -2.185590 0.413797 1.142607 -1.522311 -5.339940 5.341657 41.281464 -87.734824 -72.357134 -4.555766 14.686303 9.528934 -5.527563 -56.393889 -3.231642 -162.717777 80.981633 -153.122022 -7.993672 -12.697020 -6.543486 -0.185204 -0.585829 -0.084552 -2.419222 -58.230928 15.212952 -127.079328 82.594691 -130.631915 5.350793 -8.403185 4.278743 0.418194 0.399706 0.089774
-63.453473 46.623487 1.221706 173.225655 -30.651944 -3.562676 0.337128 17.575994 2.590542 -0.057220 1.923139 0.294784 -0.089447 3.193508 0.488777 -0.192806 15.420632 2.339654 0.508854 17.500160 -1.030578 1.236409 -3.260920 -2.122505 0.278366 1.621367 -0.886069 4.052869 -7.310772 -17.182709 -49.098940 -68.439885 93.840088 1.147098 9.082623 -22.040816 -2.101638 0.496576 1.262760 -1.882656 -5.294198 5.522921 44.639568 -87.631916 -76.018771 -4.208316 14.538881 10.817355 -5.464768 -56.414542 -3.266741 -162.775338 80.982604 -153.199100 -8.029859 -12.658453 -6.522273 -0.166941 -0.568631 -0.086752 -2.487088 -58.211885 15.210073 -127.209162 82.619947 -130.763103 5.366171 -8.413708 4.223696 0.415265 0.410586 0.083769
-63.447669 46.617923 1.224169 173.219517 -30.656966 -3.540872 0.325679 17.585295 2.573518 -0.057373 1.926688 0.292164 -0.089879 3.199364 0.484354 -0.185445 15.414240 2.333984 0.413172 17.545576 -1.148646 1.158875 -3.229343 -2.239525 0.275994 1.658466 -0.891589 4.079107 -7.200898 -17.134019 -48.990624 -68.420525 93.698346 1.189587 9.055299 -22.025626 -2.016128 0.580761 1.386557 -2.270352 -5.263232 5.732692 47.695210 -87.360752 -79.353652 -3.827462 14.385295 12.069805 -5.411640 -56.428664 -3.290646 -162.698217 80.972089 -153.126565 -8.039123 -12.619401 -6.522540 -0.161958 -0.576843 -0.074401 -2.591811 -58.189777 15.239815 -127.349078 82.647992 -130.907824 5.392636 -8.424526 4.165069 0.408403 0.421115 0.088052
-63.446357 46.613586 1.225072 173.208559 -30.668888 -3.480797 0.313747 17.590895 2.540412 -0.056861 1.935328 0.274807 -0.090497 3.204777 0.480857 -0.189624 15.427569 2.314305 0.352726 17.569428 -1.232307 1.061209 -3.166120 -2.384671 0.273592 1.677741 -0.884349 4.096183 -7.103224 -17.087375 -48.920394 -68.391427 93.624125 1.277766 9.054046 -21.834614 -1.927106 0.627381 1.527381 -2.661277 -5.232055 5.967547 50.022314 -86.956622 -81.942260 -3.473904 14.269487 13.209903 -5.300314 -56.438769 -3.373738 -162.693516 80.970995 -153.139188 -8.066669 -12.587684 -6.519469 -0.159271 -0.575079 -0.053151 -2.634342 -58.159128 15.209625 -127.466002 82.678886 -131.060131 5.439258 -8.424026 4.143213 0.396827 0.416657 0.081496
-63.439986 46.610372 1.226969 173.205036 -30.678331 -3.450786 0.311584 17.593582 2.527238 -0.064152 1.939491 0.272936 -0.085581 3.205359 0.487220 -0.192919 15.439944 2.291869 0.285825 17.607200 -1.324963 0.965531 -3.082370 -2.536059 0.258630 1.704898 -0.879141 4.096822 -7.022913 -17.059773 -48.830757 -68.348867 93.569357 1.418236 9.085039 -21.528125 -1.849180 0.657666 1.659897 -3.035111 -5.193012 6.222252 51.475265 -86.489886 -83.638979 -3.160699 14.202623 14.171817 -5.229612 -56.445738 -3.404824 -162.535873 80.963607 -152.996588 -8.091110 -12.545897 -6.518217 -0.157556 -0.569190 -0.033720 -2.655458 -58.141491 15.191685 -127.529059 82.692054 -131.122355 5.459750 -8.426707 4.110046 0.367813 0.412192 0.113160
-63.433997 46.609116 1.227070 173.214421 -30.697665 -3.422881 0.301032 17.606406 2.511464 -0.060961 1.936037 0.281664 -0.088185 3.210558 0.479073 -0.200067 15.445505 2.278083 0.222642 17.661849 -1.419394 0.876186 -2.979622 -2.691210 0.240540 1.740199 -0.872412 4.076020 -6.962562 -17.065101 -48.875236 -68.352503 93.659354 1.535465 9.218115 -21.135453 -1.773504 0.674949 1.789452 -3.378365 -5.146686 6.491183 52.168909 -86.011138 -84.564546 -2.877913 14.169630 14.933153 -5.160749 -56.442719 -3.456754 -162.333356 80.946607 -152.812125 -8.055829 -12.482661 -6.550837 -0.163383 -0.583482 0.007662 -2.677321 -58.112160 15.153719 -127.627652 82.714471 -131.192198 5.426245 -8.419862 4.058185 0.405250 0.409065 0.123701
-63.428531 46.605887 1.231813 173.230856 -30.682205 -3.400958 0.285908 17.585320 2.502081 -0.069812 1.940779 0.265638 -0.085298 3.209934 0.483003 -0.205251 15.447109 2.272038 0.176320 17.726621 -1.509673 0.797814 -2.862165 -2.848726 0.231241 1.766418 -0.866028 4.034420 -6.912304 -17.106425 -48.639498 -68.314497 93.563209 1.685524 9.307285 -20.767666 -1.694933 0.675348 1.921357 -3.683332 -5.091556 6.771183 52.319215 -85.544496 -84.938570 -2.628872 14.147109 15.496955 -5.050236 -56.475817 -3.531635 -161.812027 80.903614 -152.297146 -7.994718 -12.422589 -6.521226 -0.161874 -0.588234 0.002807 -2.855576 -58.097437 15.178135 -127.921661 82.789857 -131.472118 5.415687 -8.416601 3.954187 0.446330 0.421066 0.119547
-63.424222 46.605012 1.233214 173.250196 -30.686519 -3.375932 0.270625 17.585245 2.492205 -0.070942 1.940275 0.261180 -0.091664 3.213551 0.473235 -0.199137 15.449754 2.272890 0.130070 17.796990 -1.598285 0.734318 -2.737274 -3.006294 0.209692 1.797611 -0.858452 3.994193 -6.879606 -17.189215 -48.375176 -68.306462 93.465562 1.787422 9.418460 -20.430303 -1.637344 0.660274 2.048240 -3.946915 -5.025462 7.062400 52.203661 -85.111249 -85.035971 -2.437365 14.122097 15.871028 -4.975363 -56.483999 -3.609104 -161.447177 80.871553 -151.939621 -7.930210 -12.362777 -6.528250 -0.187819 -0.598764 0.006935 -2.924907 -58.076057 15.154171 -128.081870 82.831655 -131.627192 5.435721 -8.414572 3.897482 0.443543 0.424220 0.117380
-63.421905 46.605222 1.232713 173.265333 -30.700761 -3.341942 0.259939 17.596307 2.477435 -0.074670 1.939931 0.260566 -0.075058 3.218125 0.495964 -0.224144 15.452307 2.244623 0.094362 17.868193 -1.688267 0.689425 -2.612703 -3.160012 0.188825 1.831432 -0.856611 3.973765 -6.855204 -17.300245 -48.218627 -68.315563 93.464659 1.863272 9.572552 -20.139654 -1.594499 0.630918 2.159682 -4.167970 -4.944935 7.366408 52.115533 -84.743673 -85.148640 -2.323966 14.113720 16.072657 -4.889712 -56.483098 -3.702293 -161.193850 80.845256 -151.690859 -7.888052 -12.309026 -6.537191 -0.208137 -0.606174 0.008062 -2.894077 -58.057391 15.081032 -128.112929 82.844403 -131.641130 5.439785 -8.404673 3.866270 0.459334 0.415924 0.126940
-63.423703 46.605909 1.230462 173.296855 -30.721586 -3.298254 0.231624 17.616505 2.444263 -0.075816 1.940364 0.260123 -0.083148 3.220741 0.484423 -0.214621 15.459335 2.252762 0.069340 17.934991 -1.771136 0.665997 -2.496405 -3.305631 0.168503 1.836021 -0.865854 3.980783 -6.806800 -17.410293 -48.086800 -68.329830 93.481635 1.938907 9.729432 -19.916485 -1.568242 0.590234 2.259848 -4.350330 -4.850995 7.681317 52.209464 -84.470429 -85.429985 -2.287038 14.148753 16.134602 -4.798472 -56.476998 -3.828631 -161.103345 80.827925 -151.600215 -7.881803 -12.251728 -6.573993 -0.213832 -0.622633 0.030838 -2.905046 -58.021294 14.993604 -128.236353 82.879678 -131.774679 5.480141 -8.400812 3.849816 0.434561 0.408200 0.119706
-63.421446 46.605701 1.230198 173.314445 -30.733993 -3.281680 0.217440 17.629113 2.432103 -0.066843 1.940887 0.273366 -0.092693 3.222450 0.472098 -0.204031 15.469306 2.263440 0.056558 17.995446 -1.847635 0.665476 -2.394350 -3.439872 0.147813 1.836395 -0.878517 4.022137 -6.755441 -17.518740 -47.969567 -68.347544 93.498747 2.021562 9.888113 -19.748189 -1.552476 0.546449 2.350689 -4.504466 -4.750685 7.998877 52.543388 -84.307332 -85.931970 -2.293393 14.218284 16.091344 -4.764569 -56.469034 -3.879360 -161.020398 80.821275 -151.524116 -7.864197 -12.224153 -6.576901 -0.223552 -0.609093 0.016610 -2.947327 -58.001131 14.960965 -128.403391 82.904377 -131.920652 5.481449 -8.395254 3.809729 0.429374 0.401130 0.118666
-63.423237 46.604582 1.229811 173.322255 -30.744716 -3.245855 0.206618 17.640308 2.404246 -0.052305 1.947587 0.304630 -0.100104 3.224169 0.452926 -0.202497 15.480222 2.263088 0.057530 18.042835 -1.913595 0.686079 -2.308641 -3.560318 0.126732 1.841756 -0.899437 4.096917 -6.713978 -17.614040 -47.839348 -68.360275 93.485344 2.105738 10.034451 -19.613307 -1.543097 0.499045 2.436947 -4.645499 -4.651763 8.315188 53.111654 -84.247059 -86.644022 -2.305023 14.292616 15.970230 -4.685915 -56.471154 -3.961931 -160.964173 80.813156 -151.476262 -7.864080 -12.195687 -6.562389 -0.222420 -0.565240 -0.022365 -2.937576 -57.983656 14.881693 -128.596595 82.940947 -132.085005 5.481827 -8.383167 3.769766 0.432247 0.390881 0.119896
